<?xml version="1.0" standalone="no"?>
<!DOCTYPE svg PUBLIC "-//W3C//DTD SVG 20010904//EN"
 "http://www.w3.org/TR/2001/REC-SVG-20010904/DTD/svg10.dtd">
<svg version="1.0" xmlns="http://www.w3.org/2000/svg"
 width="812.000000pt" height="812.000000pt" viewBox="0 0 812.000000 812.000000"
 preserveAspectRatio="xMidYMid meet">
<metadata>
Created by potrace 1.11, written by Peter Selinger 2001-2013
</metadata>
<g transform="translate(0.000000,812.000000) scale(0.100000,-0.100000)"
fill="#000000" stroke="none">
<path d="M691 6060 c-9 -6 -9 -553 0 -560 4 -3 255 -5 558 -4 l551 0 -1 -72
c-1 -40 2 -77 5 -83 4 -5 2 -12 -3 -15 -5 -3 -6 -21 -2 -38 3 -18 4 -62 1 -98
-3 -36 -2 -81 1 -101 3 -19 3 -43 -1 -53 -3 -10 -3 -41 0 -70 3 -29 3 -63 0
-77 -4 -13 -3 -35 0 -49 4 -14 4 -35 -1 -47 -4 -12 -4 -25 1 -28 5 -3 5 -18 1
-33 -4 -15 -5 -38 -1 -52 4 -14 3 -35 -1 -47 -5 -12 -4 -25 1 -28 5 -3 5 -18
1 -33 -4 -15 -5 -38 -1 -52 4 -14 3 -35 -1 -47 -5 -12 -4 -25 1 -28 5 -3 5
-18 1 -33 -4 -15 -5 -38 -1 -52 4 -14 4 -34 0 -45 -4 -11 -6 -29 -4 -40 3 -19
5 -51 4 -104 0 -20 -4 -22 -23 -17 -43 13 -172 45 -212 52 -89 16 -370 9 -465
-11 -14 -3 -36 -7 -50 -10 -67 -13 -295 -97 -310 -114 -3 -3 -31 -19 -62 -36
-32 -16 -58 -33 -58 -37 0 -4 -5 -8 -11 -8 -11 0 -26 -10 -99 -68 -53 -42
-183 -172 -216 -217 -16 -22 -31 -42 -34 -45 -15 -15 -50 -71 -50 -80 0 -5 -3
-10 -7 -10 -7 0 -82 -149 -116 -230 -13 -29 -33 -93 -43 -135 -19 -81 -23
-108 -19 -116 4 -5 2 -9 -2 -9 -12 0 -15 -48 -16 -220 -1 -143 2 -172 23 -280
33 -171 146 -422 250 -553 79 -99 220 -234 276 -265 13 -7 24 -17 24 -22 0 -6
6 -10 14 -10 8 0 21 -6 28 -13 22 -23 149 -93 228 -127 137 -58 282 -100 416
-119 43 -7 95 -14 114 -17 35 -5 284 -5 350 0 88 7 190 22 256 36 33 8 138 10
329 9 258 -2 2300 0 2305 2 3 1 8 1 11 1 8 -1 287 -2 309 -1 8 1 80 1 160 0
80 0 152 0 160 0 8 1 80 1 160 0 80 0 152 0 160 0 8 1 80 1 160 0 80 0 152 0
160 0 8 1 80 1 160 0 143 -1 361 -2 390 -2 8 0 58 0 110 0 52 -1 101 -1 108 0
30 1 269 1 682 0 245 0 468 0 495 0 28 0 59 1 70 1 11 0 62 -1 113 -1 l92 0 0
2281 0 2280 -127 1 c-71 0 -294 0 -498 -1 -203 0 -407 0 -452 0 l-83 1 0 -173
c-1 -95 -1 -180 -1 -188 0 -8 0 -80 0 -160 0 -80 0 -152 0 -160 -1 -41 0 -322
2 -370 1 -30 1 -73 1 -95 -3 -154 -2 -258 3 -265 3 -5 2 -11 -3 -14 -5 -3 -7
-20 -5 -38 1 -18 2 -87 2 -153 0 -199 2 -268 7 -276 2 -4 1 -10 -4 -13 -5 -3
-7 -20 -5 -38 1 -18 2 -85 2 -148 0 -63 0 -124 0 -135 0 -19 0 -149 -1 -170 0
-5 1 -86 2 -178 1 -93 0 -170 -2 -172 -2 -2 -40 45 -83 106 -44 61 -88 120
-97 132 -9 12 -123 168 -252 347 -129 179 -239 330 -243 335 -5 6 -33 44 -63
85 -30 41 -57 77 -60 80 -3 3 -9 13 -15 22 -12 21 -374 516 -394 540 -13 15
-17 11 -52 -35 -21 -29 -42 -56 -46 -62 -5 -5 -65 -84 -133 -175 -69 -91 -128
-166 -132 -168 -5 -2 -8 -10 -8 -17 0 -7 -4 -15 -8 -17 -5 -1 -100 -124 -212
-273 -112 -148 -208 -271 -212 -273 -4 -2 -8 -10 -8 -17 0 -7 -4 -15 -8 -17
-4 -1 -40 -46 -79 -98 -40 -52 -76 -100 -80 -105 -4 -6 -21 -28 -38 -50 -16
-22 -35 -46 -42 -53 -7 -7 -13 -16 -13 -20 0 -4 -14 -23 -30 -42 -16 -19 -30
-38 -30 -42 0 -5 -5 -8 -11 -8 -6 0 -9 9 -6 20 3 11 1 20 -3 20 -5 0 -5 12 -1
28 5 15 5 37 1 48 -5 11 -4 27 0 34 5 7 5 23 0 34 -4 12 -4 29 -1 38 3 10 4
50 1 89 -3 39 -2 73 3 76 4 3 4 10 -2 17 -5 6 -6 17 -2 24 4 7 5 33 1 57 -4
25 -3 45 1 45 4 0 5 10 3 23 -3 12 -6 27 -6 32 1 6 1 26 1 45 1 19 1 43 1 53
-1 18 -1 135 0 165 0 98 -2 157 -6 163 -2 4 0 11 6 14 7 5 8 11 1 19 -5 6 -6
17 -2 25 4 7 5 30 1 52 -4 21 -4 39 -1 39 4 0 6 15 4 33 -2 17 -3 46 -3 62 1
17 1 36 1 43 -1 6 -1 18 -2 25 0 6 0 26 0 42 1 61 1 70 1 90 -1 11 -1 27 -1
35 2 62 -1 155 -5 161 -2 4 0 11 6 14 7 5 8 11 1 19 -5 6 -6 17 -2 24 4 7 5
33 1 57 -4 25 -3 45 1 45 4 0 5 10 3 23 -3 12 -6 27 -6 32 1 6 1 26 1 45 1 19
1 43 1 53 -1 18 -1 135 0 165 0 98 -2 157 -6 163 -2 4 0 11 6 14 7 5 8 11 1
19 -6 6 -6 18 -2 25 5 8 5 26 1 41 -4 15 -3 34 2 43 6 11 5 17 -2 17 -7 0 -8
6 -1 19 6 10 7 21 4 25 -3 3 -6 22 -5 41 l1 35 -47 0 c-26 0 -215 1 -420 2
-204 2 -372 -1 -372 -5 0 -5 -5 -5 -12 -1 -13 9 -3045 13 -3057 4z"/>
</g>
</svg>
